<?xml version="1.0" encoding="UTF-8"?>
<!DOCTYPE svg PUBLIC "-//W3C//DTD SVG 1.1//EN" "http://www.w3.org/Graphics/SVG/1.1/DTD/svg11.dtd">
<svg xmlns="http://www.w3.org/2000/svg" version="1.1" width="531px" height="112px" style="shape-rendering:geometricPrecision; text-rendering:geometricPrecision; image-rendering:optimizeQuality; fill-rule:evenodd; clip-rule:evenodd" xmlns:xlink="http://www.w3.org/1999/xlink">
<g><path style="opacity:0.82" fill="#030b02" d="M 71.5,-0.5 C 73.1667,-0.5 74.8333,-0.5 76.5,-0.5C 80.4379,2.93519 84.2712,6.60185 88,10.5C 86.9292,13.9774 86.5959,17.6441 87,21.5C 88.255,23.5938 90.0884,24.5938 92.5,24.5C 95.0093,23.1569 97.6759,22.6569 100.5,23C 103.667,26.1667 106.833,29.3333 110,32.5C 111.15,34.7538 111.484,37.0871 111,39.5C 87.6329,64.0335 63.7996,88.0335 39.5,111.5C 38.1667,111.5 36.8333,111.5 35.5,111.5C 30.9571,108.47 26.7904,104.803 23,100.5C 22.4719,97.7813 22.9719,95.2813 24.5,93C 24.2971,90.5941 23.2971,88.5941 21.5,87C 17.6441,86.5959 13.9774,86.9292 10.5,88C 6.60185,84.2712 2.93519,80.4379 -0.5,76.5C -0.5,74.8333 -0.5,73.1667 -0.5,71.5C 6.93687,63.5618 14.6035,55.7285 22.5,48C 23.448,47.5172 24.448,47.3505 25.5,47.5C 25.6567,48.8734 25.49,50.2068 25,51.5C 18.8335,57.6665 11.8335,64.6665 4,72.5C 3.33333,73.5 3.33333,74.5 4,75.5C 6.5,78 9,80.5 11.5,83C 24.9904,80.4904 30.4904,85.9904 28,99.5C 30.7143,102.551 33.7143,105.218 37,107.5C 41.9556,103.547 46.6223,99.2135 51,94.5C 50.9813,92.8925 50.8146,91.2259 50.5,89.5C 52.2259,89.8146 53.8925,89.9813 55.5,90C 67,78.5 78.5,67 90,55.5C 89.9813,53.8925 89.8146,52.2259 89.5,50.5C 91.2259,50.8146 92.8925,50.9813 94.5,51C 98.6667,46.8333 102.833,42.6667 107,38.5C 107.667,37.5 107.667,36.5 107,35.5C 104.5,33 102,30.5 99.5,28C 86.011,30.511 80.511,25.011 83,11.5C 80.5,9 78,6.5 75.5,4C 73.0967,4.42308 70.7634,4.25642 68.5,3.5C 68.7706,1.56954 69.7706,0.236209 71.5,-0.5 Z"/></g>
<g><path style="opacity:0.999" fill="#33e037" d="M 68.5,3.5 C 70.7634,4.25642 73.0967,4.42308 75.5,4C 78,6.5 80.5,9 83,11.5C 80.511,25.011 86.011,30.511 99.5,28C 102,30.5 104.5,33 107,35.5C 107.667,36.5 107.667,37.5 107,38.5C 102.833,42.6667 98.6667,46.8333 94.5,51C 92.8925,50.9813 91.2259,50.8146 89.5,50.5C 89.8146,52.2259 89.9813,53.8925 90,55.5C 78.5,67 67,78.5 55.5,90C 53.8925,89.9813 52.2259,89.8146 50.5,89.5C 50.8146,91.2259 50.9813,92.8925 51,94.5C 46.6223,99.2135 41.9556,103.547 37,107.5C 33.7143,105.218 30.7143,102.551 28,99.5C 30.4904,85.9904 24.9904,80.4904 11.5,83C 9,80.5 6.5,78 4,75.5C 3.33333,74.5 3.33333,73.5 4,72.5C 11.8335,64.6665 18.8335,57.6665 25,51.5C 25.49,50.2068 25.6567,48.8734 25.5,47.5C 26.1667,46.1667 27.1667,45.1667 28.5,44.5C 29.8734,44.6567 31.2068,44.49 32.5,44C 35.3333,41.1667 38.1667,38.3333 41,35.5C 41.49,34.2068 41.6567,32.8734 41.5,31.5C 42.1667,30.1667 43.1667,29.1667 44.5,28.5C 45.8734,28.6567 47.2068,28.49 48.5,28C 51.0159,25.3167 53.6826,22.8167 56.5,20.5C 57.7362,21.2458 59.0695,21.5792 60.5,21.5C 60.5792,20.0695 60.2458,18.7362 59.5,17.5C 61.1491,15.3501 62.9824,13.3501 65,11.5C 65.49,10.2068 65.6567,8.87344 65.5,7.5C 66.5,6.16667 67.5,4.83333 68.5,3.5 Z"/></g>
<g><path style="opacity:0.841" fill="#061004" d="M 65.5,7.5 C 65.6567,8.87344 65.49,10.2068 65,11.5C 62.9824,13.3501 61.1491,15.3501 59.5,17.5C 60.2458,18.7362 60.5792,20.0695 60.5,21.5C 59.0695,21.5792 57.7362,21.2458 56.5,20.5C 53.6826,22.8167 51.0159,25.3167 48.5,28C 47.2068,28.49 45.8734,28.6567 44.5,28.5C 44.3505,27.448 44.5172,26.448 45,25.5C 50.8333,19.6667 56.6667,13.8333 62.5,8C 63.448,7.51722 64.448,7.35055 65.5,7.5 Z"/></g>
<g><path style="opacity:0.907" fill="#000000" d="M 206.5,12.5 C 218.326,10.8329 223.826,15.8329 223,27.5C 219.345,34.0702 213.845,36.2368 206.5,34C 197.21,26.8807 197.21,19.7141 206.5,12.5 Z"/></g>
<g><path style="opacity:0.963" fill="#000000" d="M 392.5,14.5 C 403.002,13.2672 411.169,16.9339 417,25.5C 424.955,15.437 435.122,12.2704 447.5,16C 455.232,19.279 459.732,25.1124 461,33.5C 461.5,55.8308 461.667,78.1642 461.5,100.5C 453.167,100.5 444.833,100.5 436.5,100.5C 436.785,80.473 436.452,60.473 435.5,40.5C 433.856,40.2865 432.356,40.6198 431,41.5C 430.5,61.1638 430.333,80.8305 430.5,100.5C 421.833,100.5 413.167,100.5 404.5,100.5C 404.667,81.1638 404.5,61.8305 404,42.5C 402.333,39.8333 400.667,39.8333 399,42.5C 398.5,61.8305 398.333,81.1638 398.5,100.5C 389.833,100.5 381.167,100.5 372.5,100.5C 372.333,78.8308 372.5,57.1641 373,35.5C 375.246,24.4243 381.746,17.4243 392.5,14.5 Z"/></g>
<g><path style="opacity:0.948" fill="#000000" d="M 129.5,16.5 C 150.833,16.5 172.167,16.5 193.5,16.5C 193.5,24.8333 193.5,33.1667 193.5,41.5C 187.167,41.5 180.833,41.5 174.5,41.5C 174.5,61.1667 174.5,80.8333 174.5,100.5C 165.833,100.5 157.167,100.5 148.5,100.5C 148.5,80.8333 148.5,61.1667 148.5,41.5C 142.167,41.5 135.833,41.5 129.5,41.5C 129.5,33.1667 129.5,24.8333 129.5,16.5 Z"/></g>
<g><path style="opacity:0.945" fill="#000000" d="M 305.5,16.5 C 313.5,16.5 321.5,16.5 329.5,16.5C 329.333,30.8372 329.5,45.1705 330,59.5C 332.766,52.8007 335.933,46.3007 339.5,40C 347.833,39.3333 356.167,39.3333 364.5,40C 360.57,47.1939 356.903,54.5273 353.5,62C 358.971,74.4421 364.304,86.9421 369.5,99.5C 360.853,100.665 352.186,100.832 343.5,100C 338.808,87.5928 334.308,75.0928 330,62.5C 329.5,75.1623 329.333,87.8289 329.5,100.5C 321.5,100.5 313.5,100.5 305.5,100.5C 305.5,72.5 305.5,44.5 305.5,16.5 Z"/></g>
<g><path style="opacity:1" fill="#0b1707" d="M 61.5,23.5 C 66.0358,23.7027 68.7024,26.036 69.5,30.5C 65.6049,29.6069 62.9382,27.2736 61.5,23.5 Z"/></g>
<g><path style="opacity:0.827" fill="#050d03" d="M 41.5,31.5 C 41.6567,32.8734 41.49,34.2068 41,35.5C 38.1667,38.3333 35.3333,41.1667 32.5,44C 31.2068,44.49 29.8734,44.6567 28.5,44.5C 28.3505,43.448 28.5172,42.448 29,41.5C 32.1667,38.3333 35.3333,35.1667 38.5,32C 39.448,31.5172 40.448,31.3505 41.5,31.5 Z"/></g>
<g><path style="opacity:1" fill="#101d0b" d="M 70.5,32.5 C 73.7845,32.2693 76.2845,33.6026 78,36.5C 78.7805,37.9437 78.6139,39.277 77.5,40.5C 74.4046,38.4108 72.0713,35.7441 70.5,32.5 Z"/></g>
<g><path style="opacity:0.94" fill="#000000" d="M 261.5,37.5 C 279.873,37.6679 291.54,46.5013 296.5,64C 288.162,64.7091 279.828,65.0424 271.5,65C 264.016,59.1923 259.016,60.8589 256.5,70C 257.846,76.6828 261.846,79.3495 268.5,78C 270.543,76.292 272.21,74.292 273.5,72C 281.159,71.5003 288.826,71.3336 296.5,71.5C 293.822,92.6789 281.822,102.846 260.5,102C 239.629,97.1105 230.463,83.9439 233,62.5C 237.389,48.2381 246.889,39.9048 261.5,37.5 Z"/></g>
<g><path style="opacity:0.933" fill="#000000" d="M 530.5,62.5 C 530.5,67.5 530.5,72.5 530.5,77.5C 521.914,99.5484 506.247,106.715 483.5,99C 481.283,97.7316 479.283,96.2316 477.5,94.5C 481.645,89.187 485.979,84.0203 490.5,79C 500.226,83.9582 505.559,80.7915 506.5,69.5C 506.685,62.8461 503.685,58.5128 497.5,56.5C 494.333,57.0007 491.999,58.6674 490.5,61.5C 494.377,62.197 498.21,62.8637 502,63.5C 502.499,67.1516 502.665,70.8183 502.5,74.5C 490.5,74.5 478.5,74.5 466.5,74.5C 465.649,52.5166 476.149,40.1833 498,37.5C 514.641,38.543 525.475,46.8763 530.5,62.5 Z"/></g>
<g><path style="opacity:0.949" fill="#000000" d="M 199.5,39.5 C 207.5,39.5 215.5,39.5 223.5,39.5C 223.5,59.8333 223.5,80.1667 223.5,100.5C 215.5,100.5 207.5,100.5 199.5,100.5C 199.5,80.1667 199.5,59.8333 199.5,39.5 Z"/></g>
<g><path style="opacity:1" fill="#0a1506" d="M 80.5,41.5 C 85.373,42.3358 87.373,45.0025 86.5,49.5C 83.2876,47.6367 81.2876,44.97 80.5,41.5 Z"/></g>
<g><path style="opacity:1" fill="#0c0f03" d="M 59.5,42.5 C 62.0444,42.1043 64.2111,42.771 66,44.5C 66.3333,47.1667 66.6667,49.8333 67,52.5C 74.8112,58.0933 73.9779,61.9266 64.5,64C 62.4299,73.8518 58.4299,74.8518 52.5,67C 41.7003,67.0154 39.7003,62.8487 46.5,54.5C 42.1667,44.8333 44.8333,42.1667 54.5,46.5C 56.21,45.1128 57.8767,43.7794 59.5,42.5 Z"/></g>
<g><path style="opacity:1" fill="#f0900c" d="M 60.5,45.5 C 62.22,47.6581 63.0533,50.3248 63,53.5C 64.8962,55.5299 67.0629,57.1966 69.5,58.5C 67.4527,60.0152 65.1193,60.8485 62.5,61C 61.1053,63.7848 59.772,66.6181 58.5,69.5C 57.1966,67.0629 55.5299,64.8962 53.5,63C 50.7737,62.8184 48.1071,62.3184 45.5,61.5C 47.4885,59.6905 48.8218,57.5239 49.5,55C 48.6781,52.5284 48.0114,50.0284 47.5,47.5C 50.0284,48.0114 52.5284,48.6781 55,49.5C 57.5345,49.1323 59.3678,47.799 60.5,45.5 Z"/></g>
<g><path style="opacity:1" fill="#0b1707" d="M 23.5,61.5 C 27.2736,62.9382 29.6069,65.6049 30.5,69.5C 26.036,68.7024 23.7027,66.0358 23.5,61.5 Z"/></g>
<g><path style="opacity:1" fill="#101d0b" d="M 32.5,70.5 C 35.7441,72.0713 38.4108,74.4046 40.5,77.5C 39.277,78.6139 37.9437,78.7805 36.5,78C 33.6026,76.2845 32.2693,73.7845 32.5,70.5 Z"/></g>
<g><path style="opacity:1" fill="#0a1406" d="M 41.5,80.5 C 44.97,81.2876 47.6367,83.2876 49.5,86.5C 45.0025,87.373 42.3358,85.373 41.5,80.5 Z"/></g>
</svg>
